# AST/ASF file generated using VICON BodyLanguage
# -----------------------------------------------
:version 1.10
:name VICON
:units
  mass 1.0
  length 0.45
  angle deg
:documentation
   .ast/.asf automatically generated from VICON data using
   VICON BodyBuilder and BodyLanguage model FoxedUp or BRILLIANT.MOD
:root
   order TX TY TZ RX RY RZ
   axis XYZ
   position 0 0 0  
   orientation 0 0 0 
:bonedata
  begin
     id 1 
     name lhipjoint
     direction 0.440178 -0.822639 0.359871 
     length 2.53113 
     axis 0 0 0  XYZ
  end
  begin
     id 2 
     name lfemur
     direction 0.34202 -0.939693 0  
     length 7.88132  
     axis 0 0 20  XYZ
    dof rx ry rz
    limits (-160.0 20.0)
           (-70.0 70.0)
           (-60.0 70.0)
  end
  begin
     id 3 
     name ltibia
     direction 0.34202 -0.939693 0   
     length 8.43783   
     axis 0 0 20   XYZ
    dof rx
    limits (-10.0 170.0)
  end
  begin
     id 4 
     name lfoot
     direction 0.0886351 -0.243523 0.965837   
     length 2.63414   
     axis -90 7.62852e-016 20   XYZ
    dof rx rz
    limits (-45.0 90.0)
           (-70.0 20.0)
  end
  begin
     id 5 
     name ltoes
     direction 1.53703e-011 -4.21717e-011 1   
     length 1.31427   
     axis -90 7.62852e-016 20   XYZ
    dof rx
    limits (-90.0 20.0)
  end
  begin
     id 6 
     name rhipjoint
     direction -0.399779 -0.839773 0.367367   
     length 2.47948  
     axis 0 0 0  XYZ 
  end
  begin
     id 7 
     name rfemur
     direction -0.34202 -0.939693 0   
     length 7.74806   
     axis 0 0 -20   XYZ
    dof rx ry rz
    limits (-160.0 20.0)
           (-70.0 70.0)
           (-70.0 60.0)
  end
  begin
     id 8 
     name rtibia
     direction -0.34202 -0.939693 0   
     length 8.74432   
     axis 0 0 -20   XYZ
    dof rx
    limits (-10.0 170.0)
 end
 begin
     id 9 
     name rfoot
     direction -0.108514 -0.298139 0.948334   
     length 2.66102  
     axis -90 -7.62852e-016 -20   XYZ
    dof rx rz
    limits (-45.0 90.0)
           (-20.0 70.0)
  end
  begin
     id 10 
     name rtoes
     direction -1.53392e-011 -4.22077e-011 1   
     length 1.31983   
     axis -90 -7.62852e-016 -20   XYZ
    dof rx
    limits (-90.0 20.0)
  end
  begin
     id 11 
     name lowerback
     direction 0.0113257 0.999866 0.0118602   
     length 2.58694   
     axis 0 0 0   XYZ
    dof rx ry rz
    limits (-20.0 45.0)
           (-30.0 30.0)
           (-30.0 30.0)
  end
  begin
     id 12 
     name upperback
     direction -0.0164747 0.995193 -0.0965375   
     length 2.52368   
     axis 0 0 0   XYZ
    dof rx ry rz
    limits (-20.0 45.0)
           (-30.0 30.0)
           (-30.0 30.0)
  end
  begin
     id 13 
     name thorax
     direction -0.0194301 0.99433 -0.104552   
     length 2.56099   
     axis 0 0 0   XYZ
    dof rx ry rz
    limits (-20.0 45.0)
           (-30.0 30.0)
           (-30.0 30.0)
  end
  begin
     id 14 
     name lowerneck
     direction 0.0148543 0.995587 -0.092657   
     length 1.71582   
     axis 0 0 0   XYZ
    dof rx ry rz
    limits (-20.0 45.0)
           (-30.0 30.0)
           (-30.0 30.0)
  end
  begin
     id 15 
     name upperneck
     direction -0.0135467 0.993656 -0.111639   
     length 1.68937   
     axis 0 0 0   XYZ
    dof rx ry rz
    limits (-20.0 45.0)
           (-30.0 30.0)
           (-30.0 30.0)
  end
  begin
     id 16
     name head
     direction -0.00615349 0.999547 -0.029448  
     length 1.7462  
     axis 0 0 0   XYZ
    dof rx ry rz
    limits (-20.0 45.0)
           (-30.0 30.0)
           (-30.0 30.0)
  end
  begin
     id 17 
     name lclavicle
     direction 0.988267 0.149885 0.0293713  
     length 4.47222  
     axis 0 0 0   XYZ
    dof ry rz
    limits (-20.0 10.0)
           (0.0 20.0)
  end
  begin
     id 18 
     name lhumerus
     direction 1 -4.48986e-011 -1.14833e-027   
     length 5.37148   
     axis 180 -30 -90   XYZ
    dof rx ry rz
    limits (-60.0 90.0)
           (-90.0 90.0)
           (-90.0 90.0)
  end
  begin
     id 19
     name lradius
     direction 0.999998 0.00170963 -0.000987055   
     length 3.94212   
     axis 180 -30 -90   XYZ
    dof rx
    limits (-10.0 170.0)
  end
  begin
     id 20
     name lwrist
     direction 0.999998 7.53149e-005 -0.00194706   
     length 1.97106   
     axis 4.65056e-015 90 90   XYZ
    dof ry
    limits (-180.0 0.0)
 end
  begin
     id 21 
     name lhand
     direction 1 -4.48973e-011 -1.31746e-026   
     length 1.17917   
     axis 8.4065e-015 90 90   XYZ
    dof rx rz
    limits (-90.0 90.0)
           (-45.0 45.0)
  end
  begin
     id 22 
     name lfingers
     direction 1 -4.49107e-011 -2.63492e-026   
     length 0.950679   
     axis 1.6813e-014 90 90   XYZ
    dof rx
    limits (0.0 90.0)
  end
  begin
     id 23
     name lthumb
     direction 0.707107 -6.35048e-011 0.707107   
     length 1.36499   
     axis -90 45 2.85299e-015   XYZ
    dof rx rz
    limits (-45.0 45.0)
           (-45.0 45.0)
  end
  begin
     id 24 
     name rclavicle
     direction -0.996699 0.0642895 -0.0495725   
     length 4.62611  
     axis 0 0 0   XYZ 
    dof ry rz
    limits (-10.0 20.0)
           (-20.0 0.0)
  end
  begin
     id 25 
     name rhumerus
     direction -1 -4.48919e-011 -2.41059e-027  
     length 5.4981   
     axis 180 30 90   XYZ
    dof rx ry rz
    limits (-90.0 60.0)
           (-90.0 90.0)
           (-90.0 90.0)
  end
  begin
     id 26 
     name rradius
     direction -0.999999 0.00118101 -0.000681858   
     length 3.48381   
     axis 180 30 90   XYZ
    dof rx
    limits (-10.0 170.0)
  end
  begin
     id 27 
     name rwrist
     direction -0.999999 0.000321823 -0.00132288   
     length 1.7419   
     axis 4.65056e-015 -90 -90   XYZ
    dof ry
    limits (-180.0 0.0)
  end
  begin
     id 28
     name rhand
     direction -1 -4.49022e-011 -1.31746e-026   
     length 1.34932   
     axis 8.4065e-015 -90 -90   XYZ
    dof rx rz
    limits (-90.0 90.0)
           (-45.0 45.0)
  end
  begin
     id 29
     name rfingers
     direction -1 -4.49178e-011 -2.63492e-026   
     length 1.08785   
     axis 1.6813e-014 -90 -90   XYZ
    dof rx
    limits (0.0 90.0)
  end
  begin
     id 30
     name rthumb
     direction -0.707107 -6.34713e-011 0.707107   
     length 1.56195   
     axis -90 -45 -2.85299e-015   XYZ
    dof rx rz
    limits (-45.0 45.0)
           (-45.0 45.0)
  end
:hierarchy
  begin
    root lhipjoint rhipjoint lowerback
    lhipjoint lfemur
    lfemur ltibia
    ltibia lfoot
    lfoot ltoes
    rhipjoint rfemur
    rfemur rtibia
    rtibia rfoot
    rfoot rtoes
    lowerback upperback
    upperback thorax
    thorax lowerneck lclavicle rclavicle
    lowerneck upperneck
    upperneck head
    lclavicle lhumerus
    lhumerus lradius
    lradius lwrist
    lwrist lhand lthumb
    lhand lfingers
    rclavicle rhumerus
    rhumerus rradius
    rradius rwrist
    rwrist rhand rthumb
    rhand rfingers
  end

#!OML:ASF X:\für Bonn\!DataBase\2005_08_10_Bjorn_Final\c3d\bjorn.ASF
:FULLY-SPECIFIED
:DEGREES
1
root 0.902207 19.2106 2.72607 -175.832 -5.42484 -181.178
lowerback -8.93069 0.4526 2.26532
upperback 4.2507 -0.129665 3.04414
thorax 9.57271 -0.105689 1.9441
lowerneck -6.96658 2.8778 -1.47924
upperneck 24.6753 4.83154 -11.8668
head 9.16273 0.0362413 -3.5011
rclavicle -3.97569e-015 1.43125e-014
rhumerus -26.1195 -48.907 -60.2131
rradius 5.80958
rwrist 59.4755
rhand -13.4562 8.81234
rfingers 7.12502
rthumb 12.6534 -20.7844
lclavicle -3.97569e-015 1.43125e-014
lhumerus -36.9178 -26.8573 94.5482
lradius 25.9766
lwrist -11.7842
lhand -17.9552 -13.2009
lfingers 7.12502
lthumb 8.31361 16.6156
rfemur -13.7686 -19.7477 18.2677
rtibia 31.4454
rfoot -21.8644 2.80004
rtoes -22.6554
lfemur -17.3531 11.5638 -19.4796
ltibia 31.8685
lfoot -14.0499 -8.88457
ltoes -3.56586
2
root 0.880726 19.2114 2.72336 -175.817 -5.89723 -181.142
lowerback -8.86135 0.527381 2.17228
upperback 4.2839 -0.00231548 2.96293
thorax 9.56487 -0.0444148 1.93123
lowerneck -6.96197 2.67625 -1.7042
upperneck 24.6124 4.5484 -11.6177
head 9.11118 -0.0726728 -3.39729
rclavicle -1.98785e-014 -2.22639e-014
rhumerus -28.9133 -50.1039 -57.9444
rradius 5.9502
rwrist 59.1124
rhand -13.8052 9.29807
rfingers 7.12502
rthumb 12.3169 -20.3192
lclavicle -1.98785e-014 -2.22639e-014
lhumerus -36.4926 -27.6529 94.2814
lradius 26.582
lwrist -11.174
lhand -17.9772 -13.2211
lfingers 7.12502
lthumb 8.29233 16.5962
rfemur -13.7194 -20.0947 18.2489
rtibia 31.4195
rfoot -21.8176 2.69523
rtoes -22.4838
lfemur -17.4579 11.5992 -19.5025
ltibia 31.9271
lfoot -13.8783 -9.56819
ltoes -3.0295
3
root 0.859454 19.2123 2.71986 -175.793 -6.33704 -181.103
lowerback -8.79742 0.635439 2.12647
upperback 4.30609 0.170476 2.83538
thorax 9.54746 0.0447032 1.84964
lowerneck -6.96364 2.45872 -1.9
upperneck 24.5391 4.23456 -11.3084
head 9.05567 -0.182696 -3.27946
rclavicle -8.54774e-015 -5.56597e-014
rhumerus -32.2184 -51.2256 -55.3587
rradius 6.48787
rwrist 58.6474
rhand -14.0191 9.86939
rfingers 7.12502
rthumb 12.1107 -19.7601
lclavicle -8.54774e-015 -5.56597e-014
lhumerus -36.1405 -28.5498 93.9344
lradius 27.2446
lwrist -10.6674
lhand -17.8928 -13.2676
lfingers 7.12502
lthumb 8.3738 16.5464
rfemur -13.6743 -20.2764 18.2449
rtibia 31.3964
rfoot -21.7952 2.45772
rtoes -22.2495
lfemur -17.5624 11.7059 -19.5229
ltibia 31.9827
lfoot -13.7175 -10.2791
ltoes -2.69072
4
root 0.837235 19.2127 2.71703 -175.759 -6.76831 -181.069
lowerback -8.72662 0.728443 2.08218
upperback 4.31196 0.323469 2.70932
thorax 9.50893 0.124298 1.7648
lowerneck -6.98132 2.26334 -2.06833
upperneck 24.5108 3.95205 -11.0243
head 9.02361 -0.284212 -3.17461
rclavicle 1.96797e-014 2.22639e-014
rhumerus -35.8626 -52.1251 -52.509
rradius 7.2911
rwrist 58.2267
rhand -14.1573 10.5652
rfingers 7.12502
rthumb 11.9774 -19.0721
lclavicle 1.96797e-014 2.22639e-014
lhumerus -35.8193 -29.3915 93.5502
lradius 27.9421
lwrist -10.2169
lhand -17.7323 -13.3558
lfingers 7.12502
lthumb 8.5287 16.452
rfemur -13.6419 -20.5165 18.2349
rtibia 31.3694
rfoot -21.7797 2.31186
rtoes -21.9235
lfemur -17.6759 11.7588 -19.5479
ltibia 32.038
lfoot -13.5494 -10.9688
ltoes -2.19598
5
root 0.815033 19.2124 2.71371 -175.734 -7.17886 -181.051
lowerback -8.66486 0.80937 2.03241
upperback 4.34136 0.460837 2.56435
thorax 9.50234 0.196526 1.66074
lowerneck -7.02782 2.08393 -2.23393
upperneck 24.4551 3.6972 -10.7415
head 8.99056 -0.370481 -3.06716
rclavicle -3.69739e-014 2.3059e-014
rhumerus -39.61 -52.8748 -49.6095
rradius 8.25924
rwrist 57.8748
rhand -14.1734 11.34
rfingers 7.12502
rthumb 11.9619 -18.2983
lclavicle -3.69739e-014 2.3059e-014
lhumerus -35.4973 -30.206 93.0954
lradius 28.6774
lwrist -9.77176
lhand -17.5415 -13.4121
lfingers 7.12502
lthumb 8.71277 16.388
rfemur -13.5884 -20.6373 18.2023
rtibia 31.3357
rfoot -21.7914 2.04675
rtoes -21.7401
lfemur -17.7804 12.0026 -19.5967
ltibia 32.0917
lfoot -13.3608 -11.8094
ltoes -1.55179
